<?xml version="1.0"?>
<svg xmlns="http://www.w3.org/2000/svg" height="512px" viewBox="0 0 128 128" width="512px" class=""><g transform="matrix(1.08275 0 0 1.08275 -5.29589 -5.29589)"><g id="Layer_1" data-name="Layer 1"><path d="m121.5 13.6h-15.942v-7.1a1.75 1.75 0 0 0 -3.5 0v7.1h-36.308v-7.1a1.75 1.75 0 0 0 -3.5 0v7.1h-36.308v-7.1a1.75 1.75 0 0 0 -3.5 0v7.1h-15.942a1.75 1.75 0 0 0 -1.75 1.75v106.15a1.75 1.75 0 0 0 1.75 1.75h115a1.75 1.75 0 0 0 1.75-1.75v-106.154a1.75 1.75 0 0 0 -1.75-1.746zm-113.25 3.5h14.192v.584a6.75 6.75 0 1 0 3.5 0v-.584h36.308v.584a6.75 6.75 0 1 0 3.5 0v-.584h36.308v.584a6.75 6.75 0 1 0 3.5 0v-.584h14.192v16.5h-111.5zm15.942 8.846a1.75 1.75 0 0 0 1.75-1.75v-2.73a3.25 3.25 0 1 1 -3.5 0v2.73a1.75 1.75 0 0 0 1.75 1.746zm39.808 0a1.75 1.75 0 0 0 1.75-1.75v-2.73a3.25 3.25 0 1 1 -3.5 0v2.73a1.75 1.75 0 0 0 1.75 1.746zm39.808 0a1.75 1.75 0 0 0 1.75-1.75v-2.73a3.25 3.25 0 1 1 -3.5 0v2.73a1.75 1.75 0 0 0 1.75 1.746zm-95.558 93.804v-82.65h111.5v82.65z" data-original="#000000" class="active-path" data-old_color="#000000" fill="#D4294B"/><path d="m69.611 94.957h-28.818l-1.02-8.246 27.712-37.488h12.667v36.638h8.075v9.1h-8.075v12.666h-10.541zm0-9.1v-25.073l-18.532 25.077z" data-original="#000000" class="active-path" data-old_color="#000000" fill="#D4294B"/></g></g> </svg>
