<?xml version="1.0" encoding="UTF-8" standalone="no"?>
<!DOCTYPE svg PUBLIC "-//W3C//DTD SVG 1.1//EN" "http://www.w3.org/Graphics/SVG/1.1/DTD/svg11.dtd">
<svg version="1.1" xmlns="http://www.w3.org/2000/svg" xmlns:xlink="http://www.w3.org/1999/xlink" preserveAspectRatio="xMidYMid meet" viewBox="0 0 1200 1200" width="1200" height="1200"><defs><path d="M1286.33 891.67C1277 905.12 1268.38 915.47 1266.39 918.11C1155.68 1053.37 982.17 1094.47 878.86 1009.91C845.9 982.93 824.09 946.42 813.22 904.83C689.25 907.07 563.01 866.51 458.55 781.01C288.59 641.9 223.85 422.72 275.81 226.92C271.98 224.24 268.23 221.42 264.57 218.43C161.25 133.86 167.25 -44.34 277.96 -179.6C318.66 -229.33 367.85 -266.32 418.92 -289.02C418.92 -289.02 418.93 -289.02 418.93 -289.02C518.53 -410.72 688.27 -436.54 798.05 -346.69C877.65 -281.53 1514.47 239.7 1594.07 304.85C1680.26 375.4 1686.73 510.05 1608.52 605.6C1608.52 605.6 1608.52 605.6 1608.52 605.6C1595.52 657.2 1569.72 709.33 1531.28 756.29C1463.1 839.59 1371.09 887.16 1286.33 891.67Z" id="a1cFr1wqaj"></path></defs><g><g><g><use xlink:href="#a1cFr1wqaj" opacity="1" fill="#6d62fe" fill-opacity="1"></use><g><use xlink:href="#a1cFr1wqaj" opacity="1" fill-opacity="0" stroke="#000000" stroke-width="1" stroke-opacity="0"></use></g></g></g></g></svg>