<?xml version="1.0" encoding="UTF-8" standalone="no"?>
<!DOCTYPE svg PUBLIC "-//W3C//DTD SVG 1.1//EN" "http://www.w3.org/Graphics/SVG/1.1/DTD/svg11.dtd">
<svg version="1.1" xmlns="http://www.w3.org/2000/svg" xmlns:xlink="http://www.w3.org/1999/xlink" preserveAspectRatio="xMidYMid meet" viewBox="0 0 1200 1200" width="1200" height="1200"><defs><path d="M906.25 760.97C883.83 748.12 863.42 730.77 850.98 707.92C834.65 677.91 833.44 641.65 830.72 606.97C824.94 533.54 810.78 461.42 788.53 392.05C777.54 357.81 764.01 323.37 739.36 297.89C689.92 246.82 604.13 244.51 538.28 277.82C497.14 298.62 460.16 331.72 421.06 356.18C406.23 344.88 388.59 331.38 369.68 316.76C317.41 276.37 275.33 242.88 275.33 242.88C275.33 242.88 272.11 352.26 336.33 359.96C356.85 362.42 377.35 366.29 395.76 370.42C376.1 380.1 355.62 386.67 333.58 387.69C290.12 389.71 249.53 368.55 216.95 340.99C182.73 312.05 154.49 274.61 142.29 230.7C120.56 152.48 151.63 67.84 182.19 -9.8C188.36 -8.75 237.68 -0.33 243.85 0.72C249.62 32.25 264.25 70.27 301.16 74.69C365.37 82.39 429.44 103.91 429.44 103.91C429.44 103.91 386.78 71.9 334.51 31.5C325.73 24.72 302.1 -33.38 294.04 -39.65C362.5 -27.97 733.93 -36.21 1024.01 -39.65C1217.4 -41.94 1344.33 -44.51 1404.81 -47.36C1416.05 334.27 1418.75 528.95 1412.9 536.68C1351.05 618.38 1281.13 697.37 1192.05 746.33C1102.98 795.3 991.06 809.58 906.25 760.97ZM958.32 530.7C958.32 530.7 955.11 640.08 1019.32 647.78C1083.54 655.48 1147.61 676.99 1147.61 676.99C1147.61 676.99 1104.95 644.98 1052.68 604.58C1000.41 564.19 977.19 545.48 958.32 530.7Z" id="e1O1mu4HNG"></path><path d="M922.54 740.89C900.12 728.04 879.71 710.7 867.27 687.84C850.94 657.84 849.73 621.57 847.01 586.89C841.23 513.46 827.07 441.35 804.82 371.97C793.83 337.74 780.3 303.29 755.64 277.82C706.21 226.74 620.42 224.43 554.57 257.74C513.43 278.55 476.45 311.64 437.35 336.11C422.52 324.81 404.88 311.3 385.97 296.69C333.7 256.29 291.62 222.8 291.62 222.8C291.62 222.8 288.4 332.18 352.62 339.88C373.14 342.34 393.64 346.21 412.05 350.34C392.39 360.02 371.9 366.6 349.86 367.62C306.4 369.63 265.82 348.47 233.23 320.91C199.02 291.97 170.78 254.53 158.58 210.62C136.84 132.4 167.91 47.76 198.48 -29.87C204.65 -28.82 253.97 -20.41 260.13 -19.36C265.9 12.18 280.53 50.19 317.44 54.62C381.66 62.32 445.73 83.83 445.73 83.83C445.73 83.83 403.07 51.82 350.8 11.43C342.02 4.64 318.39 -53.46 310.33 -59.73C378.78 -48.05 750.22 -56.28 1040.3 -59.73C1233.69 -62.02 1360.62 -64.59 1421.1 -67.44C1432.34 314.2 1435.04 508.88 1429.19 516.6C1367.34 598.31 1297.41 677.29 1208.34 726.26C1119.27 775.22 1007.35 789.5 922.54 740.89ZM974.61 510.62C974.61 510.62 971.4 620 1035.61 627.7C1099.83 635.4 1163.9 656.91 1163.9 656.91C1163.9 656.91 1121.23 624.91 1068.96 584.51C1016.69 544.11 993.48 525.4 974.61 510.62Z" id="b2gUbopCVw"></path><linearGradient id="gradienth2pzzXYlF" gradientUnits="userSpaceOnUse" x1="572.52" y1="115.16" x2="1530.51" y2="317.91"><stop style="stop-color: #6a63fd;stop-opacity: 1" offset="0%"></stop><stop style="stop-color: #6661ce;stop-opacity: 1" offset="100%"></stop></linearGradient><path d="M922.54 740.89C900.12 728.04 879.71 710.7 867.27 687.84C850.94 657.84 849.73 621.57 847.01 586.89C841.23 513.46 827.07 441.35 804.82 371.97C793.83 337.74 780.3 303.29 755.64 277.82C706.21 226.74 620.42 224.43 554.57 257.74C513.43 278.55 476.45 311.64 437.35 336.11C422.52 324.81 404.88 311.3 385.97 296.69C333.7 256.29 291.62 222.8 291.62 222.8C291.62 222.8 288.4 332.18 352.62 339.88C373.14 342.34 393.64 346.21 412.05 350.34C392.39 360.02 371.9 366.6 349.86 367.62C306.4 369.63 265.82 348.47 233.23 320.91C199.02 291.97 170.78 254.53 158.58 210.62C136.84 132.4 167.91 47.76 198.48 -29.87C204.65 -28.82 253.97 -20.41 260.13 -19.36C265.9 12.18 280.53 50.19 317.44 54.62C381.66 62.32 445.73 83.83 445.73 83.83C445.73 83.83 403.07 51.82 350.8 11.43C342.02 4.64 318.39 -53.46 310.33 -59.73C378.78 -48.05 478.91 166.79 768.99 163.35C1059.07 159.91 922.61 318.55 1057.51 356.62C1192.41 394.69 1437.96 505.01 1429.19 516.6C1367.34 598.31 1297.41 677.29 1208.34 726.26C1119.27 775.22 1007.35 789.5 922.54 740.89ZM974.61 510.62C974.61 510.62 971.4 620 1035.61 627.7C1099.83 635.4 1163.9 656.91 1163.9 656.91C1163.9 656.91 1121.23 624.91 1068.96 584.51C1016.69 544.11 993.48 525.4 974.61 510.62Z" id="b1qMfCDE4N"></path></defs><g><g><g><use xlink:href="#e1O1mu4HNG" opacity="0.51" fill="#a4a0f9" fill-opacity="1"></use><g><use xlink:href="#e1O1mu4HNG" opacity="0.51" fill-opacity="0" stroke="#000000" stroke-width="1" stroke-opacity="0"></use></g></g><g><use xlink:href="#b2gUbopCVw" opacity="1" fill="url(#gradienth2pzzXYlF)"></use><g><use xlink:href="#b2gUbopCVw" opacity="1" fill-opacity="0" stroke="#000000" stroke-width="1" stroke-opacity="0"></use></g></g><g><use xlink:href="#b1qMfCDE4N" opacity="1" fill="#6a63fd" fill-opacity="1"></use><g><use xlink:href="#b1qMfCDE4N" opacity="1" fill-opacity="0" stroke="#000000" stroke-width="1" stroke-opacity="0"></use></g></g></g></g></svg>